<?xml version="1.0" standalone="no"?><svg xmlns="http://www.w3.org/2000/svg" viewBox="0 0 1440 320"><path fill="#00cba9" fill-opacity="1" d="M0,256L14.1,256C28.2,256,56,256,85,224C112.9,192,141,128,169,122.7C197.6,117,226,171,254,181.3C282.4,192,311,160,339,170.7C367.1,181,395,235,424,245.3C451.8,256,480,224,508,229.3C536.5,235,565,277,593,256C621.2,235,649,149,678,144C705.9,139,734,213,762,250.7C790.6,288,819,288,847,282.7C875.3,277,904,267,932,234.7C960,203,988,149,1016,112C1044.7,75,1073,53,1101,53.3C1129.4,53,1158,75,1186,106.7C1214.1,139,1242,181,1271,218.7C1298.8,256,1327,288,1355,298.7C1383.5,309,1412,299,1426,293.3L1440,288L1440,320L1425.9,320C1411.8,320,1384,320,1355,320C1327.1,320,1299,320,1271,320C1242.4,320,1214,320,1186,320C1157.6,320,1129,320,1101,320C1072.9,320,1045,320,1016,320C988.2,320,960,320,932,320C903.5,320,875,320,847,320C818.8,320,791,320,762,320C734.1,320,706,320,678,320C649.4,320,621,320,593,320C564.7,320,536,320,508,320C480,320,452,320,424,320C395.3,320,367,320,339,320C310.6,320,282,320,254,320C225.9,320,198,320,169,320C141.2,320,113,320,85,320C56.5,320,28,320,14,320L0,320Z"></path></svg>